<svg xmlns="http://www.w3.org/2000/svg" viewBox="0 0 400 250" width="400" height="250" role="img" aria-label="Suculenta Echeveria">
  <defs>
    <linearGradient id="bg" x1="0" y1="0" x2="0" y2="1">
      <stop offset="0" stop-color="#eaf7f0"/>
      <stop offset="1" stop-color="#cfeede"/>
    </linearGradient>
  </defs>
  <rect width="400" height="250" fill="url(#bg)"/>
  <!-- roseta concéntrica -->
  <g transform="translate(200 112)">
    <g fill="#40916c" stroke="#2d6a4f" stroke-width="1.5">
      <path d="M0 -54 L14 -16 L-14 -16 Z"/>
      <path d="M0 54 L14 16 L-14 16 Z"/>
      <path d="M-54 0 L-16 14 L-16 -14 Z"/>
      <path d="M54 0 L16 14 L16 -14 Z"/>
      <path d="M-38 -38 L-8 -20 L-20 -8 Z"/>
      <path d="M38 -38 L8 -20 L20 -8 Z"/>
      <path d="M-38 38 L-8 20 L-20 8 Z"/>
      <path d="M38 38 L8 20 L20 8 Z"/>
    </g>
    <g fill="#74c69d" stroke="#52b788" stroke-width="1.5">
      <path d="M0 -32 L9 -10 L-9 -10 Z"/>
      <path d="M0 32 L9 10 L-9 10 Z"/>
      <path d="M-32 0 L-10 9 L-10 -9 Z"/>
      <path d="M32 0 L10 9 L10 -9 Z"/>
    </g>
    <circle cx="0" cy="0" r="9" fill="#b7e4c7"/>
  </g>
  <text x="200" y="238" text-anchor="middle" font-family="Segoe UI, Arial, sans-serif" font-size="18" font-weight="700" fill="#1b4332">Suculenta Echeveria</text>
</svg>
